<svg width="24" height="24" viewBox="0 0 24 24" fill="none" xmlns="http://www.w3.org/2000/svg">
<g id="ion:call">
<path id="Vector" d="M18.3281 22.5C17.4131 22.5 16.1278 22.1691 14.2031 21.0937C11.8627 19.7812 10.0523 18.5695 7.72454 16.2478C5.48016 14.0048 4.38797 12.5526 2.85938 9.77109C1.13251 6.63046 1.42688 4.98421 1.75594 4.28062C2.14782 3.43968 2.72625 2.93671 3.47391 2.43749C3.89858 2.15926 4.34798 1.92075 4.81641 1.72499C4.86329 1.70484 4.90688 1.68562 4.94579 1.66827C5.17782 1.56374 5.52938 1.40577 5.97469 1.57452C6.27188 1.68609 6.53719 1.91437 6.95251 2.32452C7.80422 3.16452 8.96813 5.0353 9.3975 5.95405C9.68579 6.57327 9.87657 6.98202 9.87704 7.44046C9.87704 7.97718 9.60704 8.39109 9.27938 8.8378C9.21797 8.92171 9.15704 9.00187 9.09797 9.07968C8.74125 9.54843 8.66297 9.6839 8.71454 9.92577C8.81907 10.4119 9.5986 11.8589 10.8797 13.1372C12.1608 14.4155 13.5661 15.1458 14.0541 15.2498C14.3063 15.3037 14.4445 15.2222 14.9283 14.8528C14.9977 14.7998 15.0689 14.745 15.1434 14.6901C15.6431 14.3184 16.0378 14.0555 16.5619 14.0555H16.5647C17.0208 14.0555 17.4113 14.2533 18.0581 14.5795C18.9019 15.0051 20.8289 16.1541 21.6741 17.0067C22.0852 17.4211 22.3144 17.6855 22.4264 17.9822C22.5952 18.4289 22.4363 18.7791 22.3327 19.0134C22.3153 19.0523 22.2961 19.095 22.2759 19.1423C22.0786 19.6099 21.8387 20.0584 21.5592 20.482C21.0609 21.2273 20.5561 21.8044 19.7133 22.1967C19.2805 22.4014 18.8069 22.5051 18.3281 22.5Z" fill="black"/>
</g>
</svg>
