<svg width="32" height="32" viewBox="0 0 32 32" fill="none" xmlns="http://www.w3.org/2000/svg">
<g id="material-symbols:male">
<path id="Vector" d="M26.6667 5.33334V13.3333H24V9.90001L18.7 15.1667C19.1222 15.7889 19.4444 16.4502 19.6667 17.1507C19.8889 17.8511 20 18.5787 20 19.3333C20 21.3778 19.2889 23.1111 17.8667 24.5333C16.4444 25.9556 14.7111 26.6667 12.6667 26.6667C10.6222 26.6667 8.88889 25.9556 7.46667 24.5333C6.04444 23.1111 5.33333 21.3778 5.33333 19.3333C5.33333 17.2889 6.04444 15.5556 7.46667 14.1333C8.88889 12.7111 10.6222 12 12.6667 12C13.4 12 14.1222 12.1053 14.8333 12.316C15.5444 12.5267 16.2 12.8547 16.8 13.3L22.1 8.00001H18.6667V5.33334H26.6667ZM12.6667 14.6667C11.3778 14.6667 10.2778 15.1222 9.36667 16.0333C8.45556 16.9445 8 18.0445 8 19.3333C8 20.6222 8.45556 21.7222 9.36667 22.6333C10.2778 23.5445 11.3778 24 12.6667 24C13.9556 24 15.0556 23.5445 15.9667 22.6333C16.8778 21.7222 17.3333 20.6222 17.3333 19.3333C17.3333 18.0445 16.8778 16.9445 15.9667 16.0333C15.0556 15.1222 13.9556 14.6667 12.6667 14.6667Z" fill="#85B6FF"/>
</g>
</svg>
